<?xml version="1.0" encoding="utf-8"?>
<svg version="1.1" xmlns:xlink="http://www.w3.org/1999/xlink" width="40px" height="50px" xmlns="http://www.w3.org/2000/svg">
  <defs>
    <filter x="293px" y="823px" width="40px" height="50px" filterUnits="userSpaceOnUse" id="filter41">
      <feOffset dx="1" dy="1" in="SourceAlpha" result="shadowOffsetInner" />
      <feGaussianBlur stdDeviation="2.5" in="shadowOffsetInner" result="shadowGaussian" />
      <feComposite in2="shadowGaussian" operator="atop" in="SourceAlpha" result="shadowComposite" />
      <feColorMatrix type="matrix" values="0 0 0 0 0  0 0 0 0 0  0 0 0 0 0  0 0 0 0.698039215686274 0  " in="shadowComposite" />
    </filter>
    <g id="widget42">
      <path d="M 312 866.036928468354  C 306.2 856.40734059591  297.5 850.629587872444  297.5 841  C 297.5 835.985714285714  300.4 827.5  312 827.5  C 323.6 827.5  326.5 835.985714285714  326.5 841  C 326.5 850.629587872444  317.8 856.40734059591  312 866.036928468354  Z " fill-rule="nonzero" fill="#86b4ff" stroke="none" />
      <path d="M 312 867  C 306 857  297 851  297 841  C 297 835.8  300 827  312 827  C 324 827  327 835.8  327 841  C 327 851  318 857  312 867  Z M 312 865.073856936707  C 317.6 855.81468119182  326 850.259175744887  326 841  C 326 836.171428571429  323.2 828  312 828  C 300.8 828  298 836.171428571429  298 841  C 298 850.259175744887  306.4 855.81468119182  312 865.073856936707  Z " fill-rule="nonzero" fill="#ffffff" stroke="none" />
    </g>
  </defs>
  <g transform="matrix(1 0 0 1 -293 -823 )">
    <use xlink:href="#widget42" filter="url(#filter41)" />
    <use xlink:href="#widget42" />
  </g>
</svg>