<?xml version="1.0" encoding="utf-8"?>
<svg version="1.1" xmlns:xlink="http://www.w3.org/1999/xlink" width="30px" height="30px" xmlns="http://www.w3.org/2000/svg">
  <g transform="matrix(1 0 0 1 -1051 -185 )">
    <path d="M 22.94921875 11.54296875  C 23.76953125 10.95703125  24.453125 10.247395833333332  25 9.414062500000002  C 24.270833333333332 9.73958333333333  23.48307291666667 9.9609375  22.63671875 10.078125  C 23.52213541666667 9.557291666666664  24.12760416666667 8.795572916666664  24.453125 7.79296875  C 23.606770833333336 8.287760416666664  22.734375 8.619791666666664  21.8359375 8.7890625  C 21.041666666666668 7.929687499999999  20.045572916666668 7.5  18.84765625 7.5  C 17.71484375 7.5  16.748046875 7.900390624999999  15.947265625000002 8.701171875  C 15.146484375 9.501953125000002  14.74609375 10.468750000000002  14.74609375 11.6015625  C 14.74609375 11.979166666666664  14.778645833333336 12.291666666666666  14.84375 12.5390625  C 13.1640625 12.447916666666664  11.588541666666668 12.024739583333334  10.1171875 11.269531249999998  C 8.645833333333334 10.514322916666664  7.395833333333335 9.50520833333333  6.3671875 8.242187500000002  C 5.989583333333334 8.893229166666666  5.80078125 9.583333333333329  5.80078125 10.3125  C 5.80078125 11.796874999999998  6.393229166666668 12.936197916666666  7.578125000000001 13.730468749999998  C 6.966145833333334 13.717447916666664  6.315104166666667 13.548177083333334  5.625 13.222656250000002  L 5.625 13.261718749999998  C 5.625 14.23828125  5.950520833333333 15.107421875000002  6.6015625 15.869140625000002  C 7.252604166666667 16.630859375000004  8.053385416666668 17.102864583333336  9.00390625 17.28515625  C 8.626302083333336 17.389322916666664  8.294270833333334 17.441406249999996  8.0078125 17.441406249999996  C 7.838541666666668 17.441406249999996  7.584635416666668 17.41536458333333  7.24609375 17.363281250000004  C 7.519531250000001 18.183593750000004  8.004557291666666 18.86067708333333  8.701171875 19.39453125  C 9.397786458333334 19.928385416666664  10.188802083333336 20.201822916666664  11.07421875 20.21484375  C 9.563802083333334 21.38671875  7.864583333333334 21.97265625  5.9765625 21.97265625  C 5.638020833333334 21.97265625  5.3125 21.953124999999996  5 21.9140625  C 6.927083333333334 23.138020833333336  9.0234375 23.75  11.2890625 23.75  C 12.747395833333334 23.75  14.114583333333336 23.518880208333336  15.390625000000002 23.056640625  C 16.666666666666668 22.594401041666664  17.760416666666668 21.975911458333332  18.671875 21.201171875000004  C 19.583333333333332 20.426432291666664  20.367838541666668 19.53450520833333  21.025390625 18.525390624999996  C 21.682942708333336 17.516276041666668  22.171223958333336 16.461588541666668  22.490234375 15.361328124999998  C 22.80924479166667 14.261067708333332  22.96875 13.164062500000002  22.96875 12.0703125  C 22.96875 11.8359375  22.962239583333336 11.66015625  22.94921875 11.54296875  Z M 28.349609375 1.650390625000001  C 29.449869791666664 2.7506510416666643  30 4.0755208333333295  30 5.625  L 30 24.375  C 30 25.924479166666664  29.449869791666664 27.249348958333336  28.349609375 28.349609375  C 27.249348958333336 29.449869791666664  25.92447916666667 30  24.375 30  L 5.625 30  C 4.075520833333333 30  2.750651041666667 29.449869791666664  1.650390625 28.349609375  C 0.5501302083333333 27.249348958333336  0 25.924479166666664  0 24.375  L 0 5.625  C 0 4.0755208333333295  0.5501302083333333 2.7506510416666643  1.650390625 1.650390625000001  C 2.750651041666667 0.5501302083333315  4.075520833333333 0  5.625 0  L 24.375 0  C 25.92447916666667 0  27.249348958333336 0.5501302083333315  28.349609375 1.650390625000001  Z " fill-rule="nonzero" fill="#000000" stroke="none" transform="matrix(1 0 0 1 1051 185 )" />
  </g>
</svg>