<?xml version="1.0" encoding="UTF-8"?>
<svg xmlns="http://www.w3.org/2000/svg" xmlns:xlink="http://www.w3.org/1999/xlink" viewBox="0 0 20 20" width="20px" height="20px">
<g id="surface46256105">
<path style=" stroke:none;fill-rule:nonzero;fill:rgb(38.039216%,40.784314%,54.509807%);fill-opacity:1;" d="M 10 0.121094 C 4.539062 0.121094 0.121094 4.539062 0.121094 10 C 0.121094 15.460938 4.539062 19.878906 10 19.878906 C 15.460938 19.878906 19.878906 15.460938 19.878906 10 C 19.878906 4.539062 15.460938 0.121094 10 0.121094 Z M 9.207031 2.308594 C 9.238281 2.304688 9.273438 2.3125 9.304688 2.308594 L 9.304688 2.691406 C 9.304688 3.078125 9.617188 3.390625 10 3.390625 C 10.382812 3.390625 10.695312 3.078125 10.695312 2.691406 L 10.695312 2.308594 C 14.40625 2.636719 17.363281 5.59375 17.691406 9.304688 L 17.308594 9.304688 C 17.285156 9.304688 17.257812 9.304688 17.234375 9.304688 C 16.851562 9.324219 16.554688 9.652344 16.574219 10.035156 C 16.59375 10.421875 16.921875 10.71875 17.308594 10.695312 L 17.691406 10.695312 C 17.363281 14.40625 14.40625 17.363281 10.695312 17.691406 L 10.695312 17.308594 C 10.699219 17.109375 10.617188 16.917969 10.472656 16.785156 C 10.324219 16.648438 10.125 16.585938 9.929688 16.609375 C 9.570312 16.644531 9.296875 16.945312 9.304688 17.308594 L 9.304688 17.691406 C 5.59375 17.363281 2.636719 14.40625 2.308594 10.695312 L 2.691406 10.695312 C 3.078125 10.695312 3.390625 10.382812 3.390625 10 C 3.390625 9.617188 3.078125 9.304688 2.691406 9.304688 L 2.308594 9.304688 C 2.636719 5.625 5.539062 2.679688 9.207031 2.308594 Z M 10 4.183594 C 9.621094 4.183594 9.460938 4.519531 9.445312 4.710938 L 9.230469 8.773438 C 8.820312 9.03125 8.535156 9.476562 8.535156 10 C 8.535156 10.804688 9.195312 11.464844 10 11.464844 C 10.042969 11.464844 10.078125 11.445312 10.121094 11.441406 L 13.390625 14.375 C 13.539062 14.507812 13.929688 14.628906 14.277344 14.277344 C 14.628906 13.929688 14.527344 13.515625 14.398438 13.367188 L 11.464844 10.023438 C 11.464844 10.015625 11.464844 10.007812 11.464844 10 C 11.464844 9.460938 11.160156 9.003906 10.722656 8.75 L 10.554688 4.710938 C 10.542969 4.519531 10.375 4.183594 10 4.183594 Z M 10 4.183594 "/>
</g>
</svg>
