<?xml version="1.0" encoding="utf-8"?>
<svg version="1.1" xmlns:xlink="http://www.w3.org/1999/xlink" width="100px" height="100px" xmlns="http://www.w3.org/2000/svg">
  <defs>
    <path d="M 0 0  L 1024 0  L 1024 1024  L 0 1024  Z " fill-rule="evenodd" fill="black" id="path17" />
    <clipPath id="clip18">
      <use xlink:href="#path17" />
    </clipPath>
    <g clip-path="url(#clip0)">
      <rect width="1024" height="1024" fill="white" />
      <path opacity="0.163388" fill-rule="evenodd" clip-rule="evenodd" d="M946.635 588.865H863.027C852.549 588.865 843.977 580.29 843.977 569.809V486.174C843.977 475.693 852.549 467.118 863.027 467.118H946.635C957.112 467.118 965.685 475.693 965.685 486.174V569.809C965.685 580.29 957.112 588.865 946.635 588.865Z" fill="#597EF7" />
      <path fill-rule="evenodd" clip-rule="evenodd" d="M123.26 516.438H86.1701C81.4944 516.438 77.6689 512.361 77.6689 507.379V467.38C77.6689 462.397 81.4944 458.32 86.1701 458.32H123.26C127.935 458.32 131.761 462.397 131.761 467.38V507.379C131.761 512.361 127.935 516.438 123.26 516.438Z" fill="#FFC540" />
      <path fill-rule="evenodd" clip-rule="evenodd" d="M947.139 746.686C942.464 746.686 938.638 742.89 938.638 738.252V701.011C938.638 696.372 942.464 692.576 947.139 692.576H984.229C988.905 692.576 992.73 696.372 992.73 701.011V738.252C992.73 742.89 988.905 746.686 984.229 746.686H947.139Z" fill="#FF7A46" />
      <path opacity="0.49707" fill-rule="evenodd" clip-rule="evenodd" d="M54.7631 341.431C42.2434 341.431 32 331.187 32 318.668V218.763C32 206.243 42.2434 196 54.7631 196H154.668C167.187 196 177.431 206.243 177.431 218.763V318.668C177.431 331.187 167.187 341.431 154.668 341.431H54.7631Z" fill="#ADC6FF" />
      <path fill-rule="evenodd" clip-rule="evenodd" d="M886.71 345.95L866.681 365.291C864.156 367.73 859.96 367.518 857.357 364.822L836.454 343.178C833.851 340.481 833.786 336.28 836.311 333.842L856.339 314.501C858.864 312.062 863.061 312.273 865.665 314.97L886.567 336.615C889.17 339.311 889.235 343.512 886.71 345.95Z" fill="#FAAD14" />
      <path fill-rule="evenodd" clip-rule="evenodd" d="M911.389 218.448L911.874 246.287C911.936 249.797 908.919 252.721 905.172 252.787L875.087 253.312C871.339 253.377 868.223 250.56 868.161 247.05L867.675 219.211C867.614 215.702 870.63 212.777 874.378 212.711L904.463 212.186C908.211 212.121 911.327 214.939 911.389 218.448Z" fill="#FAAD14" />
      <path fill-rule="evenodd" clip-rule="evenodd" d="M839.49 100.667L863.603 114.588C866.642 116.344 867.596 120.435 865.722 123.681L850.677 149.74C848.803 152.986 844.783 154.206 841.743 152.451L817.63 138.53C814.59 136.774 813.636 132.682 815.511 129.436L830.555 103.378C832.429 100.132 836.45 98.912 839.49 100.667Z" fill="#FAAD14" />
      <path fill-rule="evenodd" clip-rule="evenodd" d="M729.223 73.3455L757.028 74.8027C760.533 74.9864 763.241 78.1995 763.044 81.9422L761.47 111.991C761.274 115.734 758.245 118.646 754.74 118.463L726.935 117.005C723.43 116.822 720.722 113.609 720.919 109.866L722.493 79.817C722.689 76.0743 725.718 73.1618 729.223 73.3455Z" fill="#FAAD14" />
      <path fill-rule="evenodd" clip-rule="evenodd" d="M608.058 128.684L629.387 110.787C632.076 108.53 636.247 109.034 638.657 111.905L657.998 134.955C660.407 137.826 660.179 142.022 657.49 144.278L636.161 162.175C633.472 164.431 629.301 163.928 626.891 161.057L607.55 138.006C605.141 135.135 605.37 130.94 608.058 128.684Z" fill="#FAAD14" />
      <path fill-rule="evenodd" clip-rule="evenodd" d="M554.156 251.642L558.991 224.222C559.6 220.766 563.12 218.47 566.81 219.121L596.443 224.346C600.134 224.997 602.656 228.357 602.047 231.814L597.212 259.234C596.602 262.691 593.083 264.987 589.392 264.336L559.759 259.111C556.068 258.46 553.547 255.099 554.156 251.642Z" fill="#FAAD14" />
      <path d="M829.53 270.028C829.53 216.227 785.972 172.155 732.239 172.155C678.506 172.155 634.945 216.227 634.945 270.028C634.945 291.322 646.234 318.827 664.361 339.105C682.336 359.199 687.456 393.027 687.456 420.002L687.456 430.579L777.023 430.579L777.023 420.09C777.023 393.115 782.143 359.351 800.026 339.193C818.213 318.706 829.53 288.758 829.53 270.028Z" fill="#FFE58F" />
      <path d="M813.518 269.764C813.518 224.826 777.139 188.005 732.24 188.005C687.34 188.005 650.969 224.822 650.969 269.764C650.969 287.567 660.395 310.534 675.542 327.474C690.557 344.262 701.706 372.521 701.706 395.054L701.706 403.881L762.778 403.881L762.778 395.13C762.778 372.593 773.926 344.386 788.869 327.546C804.064 310.434 813.518 285.417 813.518 269.768L813.518 269.764Z" fill="#FAAD14" />
      <path d="M756.933 479.931L707.546 479.931C705.82 479.931 704.245 478.807 703.308 476.962L696.59 459.552L767.897 459.552L761.179 476.962C760.238 478.807 758.668 479.931 756.941 479.931L756.933 479.931Z" fill="#393D65" />
      <path d="M768.924 390.343L695.555 390.343C690.102 390.343 685.681 394.764 685.681 400.217L685.681 457.173C685.681 462.627 690.102 467.047 695.555 467.047L768.924 467.047C774.377 467.047 778.798 462.627 778.798 457.173L778.798 400.217C778.798 394.764 774.377 390.343 768.924 390.343Z" fill="#597EF7" />
      <path fill-rule="evenodd" clip-rule="evenodd" d="M684.625 412.86C684.625 412.21 685.152 411.684 685.802 411.684L738.261 411.684C738.91 411.684 739.437 412.21 739.437 412.86C739.437 413.509 738.91 414.036 738.261 414.036L685.802 414.036C685.152 414.036 684.625 413.509 684.625 412.86Z" fill="white" />
      <path fill-rule="evenodd" clip-rule="evenodd" d="M684.625 446.961C684.625 446.312 685.152 445.785 685.802 445.785L738.261 445.785C738.91 445.785 739.437 446.312 739.437 446.961C739.437 447.611 738.91 448.138 738.261 448.138L685.802 448.138C685.152 448.138 684.625 447.611 684.625 446.961Z" fill="white" />
      <path fill-rule="evenodd" clip-rule="evenodd" d="M724.862 429.909C724.862 429.259 725.389 428.732 726.038 428.732L778.497 428.732C779.147 428.732 779.673 429.259 779.673 429.909C779.673 430.558 779.147 431.085 778.497 431.085L726.038 431.085C725.389 431.085 724.862 430.558 724.862 429.909Z" fill="white" />
      <path d="M738.875 230.692L702.2 286.645C700.227 289.678 702.349 293.408 705.905 293.408L722.334 293.408L702.134 331.623C700.628 334.713 704.512 337.58 706.893 335.137L761.827 279.861C764.63 276.984 762.64 272.071 758.674 272.071L733.831 272.071L744.225 233.132C745.037 229.809 740.722 227.859 738.875 230.692Z" fill="white" />
      <path fill-rule="evenodd" clip-rule="evenodd" d="M418.326 891.696C242.511 891.696 99.9844 749.169 99.9844 573.354C99.9844 397.539 242.511 255.012 418.326 255.012C594.141 255.012 736.667 397.539 736.667 573.354C736.667 749.169 594.141 891.696 418.326 891.696Z" fill="#ADC6FF" />
      <path fill-rule="evenodd" clip-rule="evenodd" d="M405.294 526.813C405.294 563.826 375.289 593.832 338.275 593.832C301.261 593.832 271.256 563.826 271.256 526.813C271.256 489.799 301.261 459.793 338.275 459.793C375.289 459.793 405.294 489.799 405.294 526.813Z" fill="white" />
      <path fill-rule="evenodd" clip-rule="evenodd" d="M565.396 526.813C565.396 563.826 535.391 593.832 498.377 593.832C461.363 593.832 431.357 563.826 431.357 526.813C431.357 489.799 461.363 459.793 498.377 459.793C535.391 459.793 565.396 489.799 565.396 526.813Z" fill="white" />
      <path fill-rule="evenodd" clip-rule="evenodd" d="M368.061 524.951C368.061 540.374 355.559 552.876 340.137 552.876C324.714 552.876 312.212 540.374 312.212 524.951C312.212 509.529 324.714 497.027 340.137 497.027C355.559 497.027 368.061 509.529 368.061 524.951Z" fill="#253368" />
      <path fill-rule="evenodd" clip-rule="evenodd" d="M524.44 524.951C524.44 540.374 511.938 552.876 496.515 552.876C481.093 552.876 468.591 540.374 468.591 524.951C468.591 509.529 481.093 497.027 496.515 497.027C511.938 497.027 524.44 509.529 524.44 524.951Z" fill="#253368" />
      <path fill-rule="evenodd" clip-rule="evenodd" d="M304.732 652.146C301.985 646.622 304.235 639.918 309.759 637.171C315.283 634.422 321.986 636.674 324.734 642.197C340.494 673.886 377.231 694.361 418.326 694.361C459.421 694.361 496.157 673.886 511.918 642.197C514.665 636.674 521.367 634.424 526.894 637.171C532.417 639.918 534.668 646.623 531.92 652.146C512.416 691.361 467.828 716.701 418.326 716.701C368.824 716.701 324.235 691.361 304.732 652.146Z" fill="#253368" />
      <g clip-path="url(#clip1)">
        <path fill-rule="evenodd" clip-rule="evenodd" d="M810.297 787.546C859.083 815.712 921.464 798.997 949.63 750.212C977.796 701.427 961.081 639.045 912.296 610.879C863.511 582.713 801.13 599.428 772.964 648.213C744.797 696.999 761.512 759.38 810.297 787.546Z" fill="#ADC6FF" />
        <path fill-rule="evenodd" clip-rule="evenodd" d="M872.369 688.386C866.439 698.657 869.958 711.79 880.229 717.719C890.499 723.649 903.632 720.13 909.562 709.859C915.492 699.589 911.973 686.456 901.702 680.526C891.432 674.597 878.299 678.116 872.369 688.386Z" fill="white" />
        <path fill-rule="evenodd" clip-rule="evenodd" d="M827.944 662.737C822.014 673.008 825.533 686.141 835.804 692.071C846.074 698 859.207 694.481 865.137 684.211C871.067 673.94 867.548 660.807 857.277 654.878C847.007 648.948 833.874 652.467 827.944 662.737Z" fill="white" />
        <path fill-rule="evenodd" clip-rule="evenodd" d="M882.999 693.835C880.528 698.114 881.994 703.586 886.274 706.057C890.553 708.527 896.025 707.061 898.496 702.782C900.966 698.502 899.5 693.03 895.221 690.56C890.941 688.089 885.469 689.555 882.999 693.835Z" fill="#253368" />
        <path fill-rule="evenodd" clip-rule="evenodd" d="M839.607 668.782C837.136 673.062 838.602 678.533 842.881 681.004C847.161 683.475 852.633 682.009 855.104 677.729C857.574 673.45 856.108 667.978 851.829 665.507C847.549 663.036 842.077 664.503 839.607 668.782Z" fill="#253368" />
        <path fill-rule="evenodd" clip-rule="evenodd" d="M880.194 739.274C881.842 738.181 882.291 735.961 881.199 734.313C880.106 732.666 877.885 732.217 876.238 733.309C866.788 739.577 853.314 739.373 841.911 732.79C830.508 726.206 823.595 714.64 824.298 703.322C824.421 701.349 822.922 699.651 820.948 699.528C818.975 699.405 817.277 700.905 817.154 702.878C816.284 716.884 824.597 731.058 838.333 738.989C852.068 746.919 868.5 747.031 880.194 739.274Z" fill="#253368" />
      </g>
    </g>
    <defs>
      <clipPath id="clip0">
        <rect width="1024" height="1024" fill="white" />
      </clipPath>
      <clipPath id="clip1">
        <rect width="241.907" height="241.907" fill="white" transform="matrix(-0.866025 -0.5 -0.5 0.866025 1026.45 654.953)" />
      </clipPath>
    </defs>
    <filter x="-50.00%" y="-50.00%" width="200.00%" height="200.00%" filterUnits="objectBoundingBox" id="filter19">
      <feColorMatrix type="matrix" values="1 0 0 0 0  0 1 0 0 0  0 0 1 0 0  0 0 0 1 0  " in="SourceGraphic" />
    </filter>
  </defs>
  <g transform="matrix(1 0 0 1 -15 -577 )">
    <g transform="matrix(0.09765625 0 0 0.09765625 15 577 )" clip-path="url(#clip18)" filter="url(#filter19)">
      <g clip-path="url(#clip0)">
        <rect width="1024" height="1024" fill="white" />
        <path opacity="0.163388" fill-rule="evenodd" clip-rule="evenodd" d="M946.635 588.865H863.027C852.549 588.865 843.977 580.29 843.977 569.809V486.174C843.977 475.693 852.549 467.118 863.027 467.118H946.635C957.112 467.118 965.685 475.693 965.685 486.174V569.809C965.685 580.29 957.112 588.865 946.635 588.865Z" fill="#597EF7" />
        <path fill-rule="evenodd" clip-rule="evenodd" d="M123.26 516.438H86.1701C81.4944 516.438 77.6689 512.361 77.6689 507.379V467.38C77.6689 462.397 81.4944 458.32 86.1701 458.32H123.26C127.935 458.32 131.761 462.397 131.761 467.38V507.379C131.761 512.361 127.935 516.438 123.26 516.438Z" fill="#FFC540" />
        <path fill-rule="evenodd" clip-rule="evenodd" d="M947.139 746.686C942.464 746.686 938.638 742.89 938.638 738.252V701.011C938.638 696.372 942.464 692.576 947.139 692.576H984.229C988.905 692.576 992.73 696.372 992.73 701.011V738.252C992.73 742.89 988.905 746.686 984.229 746.686H947.139Z" fill="#FF7A46" />
        <path opacity="0.49707" fill-rule="evenodd" clip-rule="evenodd" d="M54.7631 341.431C42.2434 341.431 32 331.187 32 318.668V218.763C32 206.243 42.2434 196 54.7631 196H154.668C167.187 196 177.431 206.243 177.431 218.763V318.668C177.431 331.187 167.187 341.431 154.668 341.431H54.7631Z" fill="#ADC6FF" />
        <path fill-rule="evenodd" clip-rule="evenodd" d="M886.71 345.95L866.681 365.291C864.156 367.73 859.96 367.518 857.357 364.822L836.454 343.178C833.851 340.481 833.786 336.28 836.311 333.842L856.339 314.501C858.864 312.062 863.061 312.273 865.665 314.97L886.567 336.615C889.17 339.311 889.235 343.512 886.71 345.95Z" fill="#FAAD14" />
        <path fill-rule="evenodd" clip-rule="evenodd" d="M911.389 218.448L911.874 246.287C911.936 249.797 908.919 252.721 905.172 252.787L875.087 253.312C871.339 253.377 868.223 250.56 868.161 247.05L867.675 219.211C867.614 215.702 870.63 212.777 874.378 212.711L904.463 212.186C908.211 212.121 911.327 214.939 911.389 218.448Z" fill="#FAAD14" />
        <path fill-rule="evenodd" clip-rule="evenodd" d="M839.49 100.667L863.603 114.588C866.642 116.344 867.596 120.435 865.722 123.681L850.677 149.74C848.803 152.986 844.783 154.206 841.743 152.451L817.63 138.53C814.59 136.774 813.636 132.682 815.511 129.436L830.555 103.378C832.429 100.132 836.45 98.912 839.49 100.667Z" fill="#FAAD14" />
        <path fill-rule="evenodd" clip-rule="evenodd" d="M729.223 73.3455L757.028 74.8027C760.533 74.9864 763.241 78.1995 763.044 81.9422L761.47 111.991C761.274 115.734 758.245 118.646 754.74 118.463L726.935 117.005C723.43 116.822 720.722 113.609 720.919 109.866L722.493 79.817C722.689 76.0743 725.718 73.1618 729.223 73.3455Z" fill="#FAAD14" />
        <path fill-rule="evenodd" clip-rule="evenodd" d="M608.058 128.684L629.387 110.787C632.076 108.53 636.247 109.034 638.657 111.905L657.998 134.955C660.407 137.826 660.179 142.022 657.49 144.278L636.161 162.175C633.472 164.431 629.301 163.928 626.891 161.057L607.55 138.006C605.141 135.135 605.37 130.94 608.058 128.684Z" fill="#FAAD14" />
        <path fill-rule="evenodd" clip-rule="evenodd" d="M554.156 251.642L558.991 224.222C559.6 220.766 563.12 218.47 566.81 219.121L596.443 224.346C600.134 224.997 602.656 228.357 602.047 231.814L597.212 259.234C596.602 262.691 593.083 264.987 589.392 264.336L559.759 259.111C556.068 258.46 553.547 255.099 554.156 251.642Z" fill="#FAAD14" />
        <path d="M829.53 270.028C829.53 216.227 785.972 172.155 732.239 172.155C678.506 172.155 634.945 216.227 634.945 270.028C634.945 291.322 646.234 318.827 664.361 339.105C682.336 359.199 687.456 393.027 687.456 420.002L687.456 430.579L777.023 430.579L777.023 420.09C777.023 393.115 782.143 359.351 800.026 339.193C818.213 318.706 829.53 288.758 829.53 270.028Z" fill="#FFE58F" />
        <path d="M813.518 269.764C813.518 224.826 777.139 188.005 732.24 188.005C687.34 188.005 650.969 224.822 650.969 269.764C650.969 287.567 660.395 310.534 675.542 327.474C690.557 344.262 701.706 372.521 701.706 395.054L701.706 403.881L762.778 403.881L762.778 395.13C762.778 372.593 773.926 344.386 788.869 327.546C804.064 310.434 813.518 285.417 813.518 269.768L813.518 269.764Z" fill="#FAAD14" />
        <path d="M756.933 479.931L707.546 479.931C705.82 479.931 704.245 478.807 703.308 476.962L696.59 459.552L767.897 459.552L761.179 476.962C760.238 478.807 758.668 479.931 756.941 479.931L756.933 479.931Z" fill="#393D65" />
        <path d="M768.924 390.343L695.555 390.343C690.102 390.343 685.681 394.764 685.681 400.217L685.681 457.173C685.681 462.627 690.102 467.047 695.555 467.047L768.924 467.047C774.377 467.047 778.798 462.627 778.798 457.173L778.798 400.217C778.798 394.764 774.377 390.343 768.924 390.343Z" fill="#597EF7" />
        <path fill-rule="evenodd" clip-rule="evenodd" d="M684.625 412.86C684.625 412.21 685.152 411.684 685.802 411.684L738.261 411.684C738.91 411.684 739.437 412.21 739.437 412.86C739.437 413.509 738.91 414.036 738.261 414.036L685.802 414.036C685.152 414.036 684.625 413.509 684.625 412.86Z" fill="white" />
        <path fill-rule="evenodd" clip-rule="evenodd" d="M684.625 446.961C684.625 446.312 685.152 445.785 685.802 445.785L738.261 445.785C738.91 445.785 739.437 446.312 739.437 446.961C739.437 447.611 738.91 448.138 738.261 448.138L685.802 448.138C685.152 448.138 684.625 447.611 684.625 446.961Z" fill="white" />
        <path fill-rule="evenodd" clip-rule="evenodd" d="M724.862 429.909C724.862 429.259 725.389 428.732 726.038 428.732L778.497 428.732C779.147 428.732 779.673 429.259 779.673 429.909C779.673 430.558 779.147 431.085 778.497 431.085L726.038 431.085C725.389 431.085 724.862 430.558 724.862 429.909Z" fill="white" />
        <path d="M738.875 230.692L702.2 286.645C700.227 289.678 702.349 293.408 705.905 293.408L722.334 293.408L702.134 331.623C700.628 334.713 704.512 337.58 706.893 335.137L761.827 279.861C764.63 276.984 762.64 272.071 758.674 272.071L733.831 272.071L744.225 233.132C745.037 229.809 740.722 227.859 738.875 230.692Z" fill="white" />
        <path fill-rule="evenodd" clip-rule="evenodd" d="M418.326 891.696C242.511 891.696 99.9844 749.169 99.9844 573.354C99.9844 397.539 242.511 255.012 418.326 255.012C594.141 255.012 736.667 397.539 736.667 573.354C736.667 749.169 594.141 891.696 418.326 891.696Z" fill="#ADC6FF" />
        <path fill-rule="evenodd" clip-rule="evenodd" d="M405.294 526.813C405.294 563.826 375.289 593.832 338.275 593.832C301.261 593.832 271.256 563.826 271.256 526.813C271.256 489.799 301.261 459.793 338.275 459.793C375.289 459.793 405.294 489.799 405.294 526.813Z" fill="white" />
        <path fill-rule="evenodd" clip-rule="evenodd" d="M565.396 526.813C565.396 563.826 535.391 593.832 498.377 593.832C461.363 593.832 431.357 563.826 431.357 526.813C431.357 489.799 461.363 459.793 498.377 459.793C535.391 459.793 565.396 489.799 565.396 526.813Z" fill="white" />
        <path fill-rule="evenodd" clip-rule="evenodd" d="M368.061 524.951C368.061 540.374 355.559 552.876 340.137 552.876C324.714 552.876 312.212 540.374 312.212 524.951C312.212 509.529 324.714 497.027 340.137 497.027C355.559 497.027 368.061 509.529 368.061 524.951Z" fill="#253368" />
        <path fill-rule="evenodd" clip-rule="evenodd" d="M524.44 524.951C524.44 540.374 511.938 552.876 496.515 552.876C481.093 552.876 468.591 540.374 468.591 524.951C468.591 509.529 481.093 497.027 496.515 497.027C511.938 497.027 524.44 509.529 524.44 524.951Z" fill="#253368" />
        <path fill-rule="evenodd" clip-rule="evenodd" d="M304.732 652.146C301.985 646.622 304.235 639.918 309.759 637.171C315.283 634.422 321.986 636.674 324.734 642.197C340.494 673.886 377.231 694.361 418.326 694.361C459.421 694.361 496.157 673.886 511.918 642.197C514.665 636.674 521.367 634.424 526.894 637.171C532.417 639.918 534.668 646.623 531.92 652.146C512.416 691.361 467.828 716.701 418.326 716.701C368.824 716.701 324.235 691.361 304.732 652.146Z" fill="#253368" />
        <g clip-path="url(#clip1)">
          <path fill-rule="evenodd" clip-rule="evenodd" d="M810.297 787.546C859.083 815.712 921.464 798.997 949.63 750.212C977.796 701.427 961.081 639.045 912.296 610.879C863.511 582.713 801.13 599.428 772.964 648.213C744.797 696.999 761.512 759.38 810.297 787.546Z" fill="#ADC6FF" />
          <path fill-rule="evenodd" clip-rule="evenodd" d="M872.369 688.386C866.439 698.657 869.958 711.79 880.229 717.719C890.499 723.649 903.632 720.13 909.562 709.859C915.492 699.589 911.973 686.456 901.702 680.526C891.432 674.597 878.299 678.116 872.369 688.386Z" fill="white" />
          <path fill-rule="evenodd" clip-rule="evenodd" d="M827.944 662.737C822.014 673.008 825.533 686.141 835.804 692.071C846.074 698 859.207 694.481 865.137 684.211C871.067 673.94 867.548 660.807 857.277 654.878C847.007 648.948 833.874 652.467 827.944 662.737Z" fill="white" />
          <path fill-rule="evenodd" clip-rule="evenodd" d="M882.999 693.835C880.528 698.114 881.994 703.586 886.274 706.057C890.553 708.527 896.025 707.061 898.496 702.782C900.966 698.502 899.5 693.03 895.221 690.56C890.941 688.089 885.469 689.555 882.999 693.835Z" fill="#253368" />
          <path fill-rule="evenodd" clip-rule="evenodd" d="M839.607 668.782C837.136 673.062 838.602 678.533 842.881 681.004C847.161 683.475 852.633 682.009 855.104 677.729C857.574 673.45 856.108 667.978 851.829 665.507C847.549 663.036 842.077 664.503 839.607 668.782Z" fill="#253368" />
          <path fill-rule="evenodd" clip-rule="evenodd" d="M880.194 739.274C881.842 738.181 882.291 735.961 881.199 734.313C880.106 732.666 877.885 732.217 876.238 733.309C866.788 739.577 853.314 739.373 841.911 732.79C830.508 726.206 823.595 714.64 824.298 703.322C824.421 701.349 822.922 699.651 820.948 699.528C818.975 699.405 817.277 700.905 817.154 702.878C816.284 716.884 824.597 731.058 838.333 738.989C852.068 746.919 868.5 747.031 880.194 739.274Z" fill="#253368" />
        </g>
      </g>
    </g>
  </g>
</svg>