<?xml version="1.0" encoding="utf-8"?>
<svg version="1.1" xmlns:xlink="http://www.w3.org/1999/xlink" width="18px" height="18px" xmlns="http://www.w3.org/2000/svg">
  <g transform="matrix(1 0 0 1 -19 -160 )">
    <path d="M 4.8 6.42857142857143  C 4.8 7.359375  5.053125 8.21651785714286  5.559375 9  C 4.546875 9.03348214285714  3.71875 9.46205357142857  3.075 10.2857142857143  L 1.81875 10.2857142857143  C 1.30625 10.2857142857143  0.875 10.1501116071429  0.525 9.87890625  C 0.175 9.60770089285714  0 9.2109375  0 8.68861607142857  C 0 6.32477678571428  0.3875 5.14285714285714  1.1625 5.14285714285714  C 1.2 5.14285714285714  1.3359375 5.21316964285714  1.5703125 5.35379464285714  C 1.8046875 5.49441964285714  2.109375 5.63671875  2.484375 5.78069196428572  C 2.859375 5.92466517857143  3.23125 5.99665178571428  3.6 5.99665178571428  C 4.01875 5.99665178571428  4.434375 5.91964285714286  4.846875 5.765625  C 4.815625 6.01339285714286  4.8 6.234375  4.8 6.42857142857143  Z M 15.5671875 14.3588169642857  C 15.5890625 14.6969866071429  15.6 15.0435267857143  15.6 15.3984375  C 15.6 16.2020089285714  15.371875 16.8364955357143  14.915625 17.3018973214286  C 14.459375 17.7672991071429  13.853125 18  13.096875 18  L 4.903125 18  C 4.146875 18  3.540625 17.7672991071429  3.084375 17.3018973214286  C 2.628125 16.8364955357143  2.4 16.2020089285714  2.4 15.3984375  C 2.4 15.0435267857143  2.4109375 14.6969866071429  2.4328125 14.3588169642857  C 2.4546875 14.0206473214286  2.4984375 13.6556919642857  2.5640625 13.2639508928571  C 2.6296875 12.8722098214286  2.7125 12.5089285714286  2.8125 12.1741071428571  C 2.9125 11.8392857142857  3.046875 11.5128348214286  3.215625 11.1947544642857  C 3.384375 10.8766741071429  3.578125 10.60546875  3.796875 10.3811383928571  C 4.015625 10.1568080357143  4.2828125 9.97767857142857  4.5984375 9.84375  C 4.9140625 9.70982142857143  5.2625 9.64285714285714  5.64375 9.64285714285714  C 5.70625 9.64285714285714  5.840625 9.71484375  6.046875 9.85881696428572  C 6.253125 10.0027901785714  6.48125 10.1635044642857  6.73125 10.3409598214286  C 6.98125 10.5184151785714  7.315625 10.6791294642857  7.734375 10.8231026785714  C 8.153125 10.9670758928571  8.575 11.0390625  9 11.0390625  C 9.425 11.0390625  9.846875 10.9670758928571  10.265625 10.8231026785714  C 10.684375 10.6791294642857  11.01875 10.5184151785714  11.26875 10.3409598214286  C 11.51875 10.1635044642857  11.746875 10.0027901785714  11.953125 9.85881696428572  C 12.159375 9.71484375  12.29375 9.64285714285714  12.35625 9.64285714285714  C 12.7375 9.64285714285714  13.0859375 9.70982142857143  13.4015625 9.84375  C 13.7171875 9.97767857142857  13.984375 10.1568080357143  14.203125 10.3811383928571  C 14.421875 10.60546875  14.615625 10.8766741071429  14.784375 11.1947544642857  C 14.953125 11.5128348214286  15.0875 11.8392857142857  15.1875 12.1741071428571  C 15.2875 12.5089285714286  15.3703125 12.8722098214286  15.4359375 13.2639508928571  C 15.5015625 13.6556919642857  15.5453125 14.0206473214286  15.5671875 14.3588169642857  Z M 5.296875 0.753348214285715  C 5.765625 1.25558035714286  6 1.86160714285714  6 2.57142857142857  C 6 3.28125  5.765625 3.88727678571429  5.296875 4.38950892857143  C 4.828125 4.89174107142857  4.2625 5.14285714285714  3.6 5.14285714285714  C 2.9375 5.14285714285714  2.371875 4.89174107142857  1.903125 4.38950892857143  C 1.434375 3.88727678571429  1.2 3.28125  1.2 2.57142857142857  C 1.2 1.86160714285714  1.434375 1.25558035714286  1.903125 0.753348214285715  C 2.371875 0.251116071428572  2.9375 0  3.6 0  C 4.2625 0  4.828125 0.251116071428572  5.296875 0.753348214285715  Z M 11.5453125 3.70145089285714  C 12.2484375 4.45479910714286  12.6 5.36383928571428  12.6 6.42857142857143  C 12.6 7.49330357142857  12.2484375 8.40234375  11.5453125 9.15569196428572  C 10.8421875 9.90904017857143  9.99375 10.2857142857143  9 10.2857142857143  C 8.00625 10.2857142857143  7.1578125 9.90904017857143  6.4546875 9.15569196428572  C 5.7515625 8.40234375  5.4 7.49330357142857  5.4 6.42857142857143  C 5.4 5.36383928571428  5.7515625 4.45479910714286  6.4546875 3.70145089285714  C 7.1578125 2.94810267857143  8.00625 2.57142857142857  9 2.57142857142857  C 9.99375 2.57142857142857  10.8421875 2.94810267857143  11.5453125 3.70145089285714  Z M 16.8375 5.14285714285714  C 17.6125 5.14285714285714  18 6.32477678571428  18 8.68861607142857  C 18 9.2109375  17.825 9.60770089285714  17.475 9.87890625  C 17.125 10.1501116071429  16.69375 10.2857142857143  16.18125 10.2857142857143  L 14.925 10.2857142857143  C 14.28125 9.46205357142857  13.453125 9.03348214285714  12.440625 9  C 12.946875 8.21651785714286  13.2 7.359375  13.2 6.42857142857143  C 13.2 6.234375  13.184375 6.01339285714286  13.153125 5.765625  C 13.565625 5.91964285714286  13.98125 5.99665178571428  14.4 5.99665178571428  C 14.76875 5.99665178571428  15.140625 5.92466517857143  15.515625 5.78069196428572  C 15.890625 5.63671875  16.1953125 5.49441964285714  16.4296875 5.35379464285714  C 16.6640625 5.21316964285714  16.8 5.14285714285714  16.8375 5.14285714285714  Z M 16.096875 0.753348214285715  C 16.565625 1.25558035714286  16.8 1.86160714285714  16.8 2.57142857142857  C 16.8 3.28125  16.565625 3.88727678571429  16.096875 4.38950892857143  C 15.628125 4.89174107142857  15.0625 5.14285714285714  14.4 5.14285714285714  C 13.7375 5.14285714285714  13.171875 4.89174107142857  12.703125 4.38950892857143  C 12.234375 3.88727678571429  12 3.28125  12 2.57142857142857  C 12 1.86160714285714  12.234375 1.25558035714286  12.703125 0.753348214285715  C 13.171875 0.251116071428572  13.7375 0  14.4 0  C 15.0625 0  15.628125 0.251116071428572  16.096875 0.753348214285715  Z " fill-rule="nonzero" fill="#000000" stroke="none" transform="matrix(1 0 0 1 19 160 )" />
  </g>
</svg>