<?xml version="1.0" encoding="utf-8"?>
<svg version="1.1" xmlns:xlink="http://www.w3.org/1999/xlink" width="18px" height="13px" xmlns="http://www.w3.org/2000/svg">
  <g transform="matrix(1 0 0 1 -291 -163 )">
    <path d="M 9 7.09090909090909  L 9 3.54545454545455  L 5.625 3.54545454545455  L 5.625 7.09090909090909  L 9 7.09090909090909  Z M 4.5 9.45454545454546  L 10.125 9.45454545454546  L 10.125 10.6363636363636  L 4.5 10.6363636363636  L 4.5 9.45454545454546  Z M 4.5 2.36363636363636  L 10.125 2.36363636363636  L 10.125 8.27272727272727  L 4.5 8.27272727272727  L 4.5 2.36363636363636  Z M 11.25 9.45454545454546  L 15.75 9.45454545454546  L 15.75 10.6363636363636  L 11.25 10.6363636363636  L 11.25 9.45454545454546  Z M 11.25 7.09090909090909  L 15.75 7.09090909090909  L 15.75 8.27272727272727  L 11.25 8.27272727272727  L 11.25 7.09090909090909  Z M 11.25 4.72727272727273  L 15.75 4.72727272727273  L 15.75 5.90909090909091  L 11.25 5.90909090909091  L 11.25 4.72727272727273  Z M 11.25 2.36363636363636  L 15.75 2.36363636363636  L 15.75 3.54545454545455  L 11.25 3.54545454545455  L 11.25 2.36363636363636  Z M 2.0830078125 11.6427556818182  C 2.1943359375 11.5258049242424  2.25 11.3873106060606  2.25 11.2272727272727  L 2.25 2.36363636363636  L 1.125 2.36363636363636  L 1.125 11.2272727272727  C 1.125 11.3873106060606  1.1806640625 11.5258049242424  1.2919921875 11.6427556818182  C 1.4033203125 11.7597064393939  1.53515625 11.8181818181818  1.6875 11.8181818181818  C 1.83984375 11.8181818181818  1.9716796875 11.7597064393939  2.0830078125 11.6427556818182  Z M 16.7080078125 11.6427556818182  C 16.8193359375 11.5258049242424  16.875 11.3873106060606  16.875 11.2272727272727  L 16.875 1.18181818181818  L 3.375 1.18181818181818  L 3.375 11.2272727272727  C 3.375 11.4303977272727  3.3427734375 11.6273674242424  3.2783203125 11.8181818181818  L 16.3125 11.8181818181818  C 16.46484375 11.8181818181818  16.5966796875 11.7597064393939  16.7080078125 11.6427556818182  Z M 2.25 0  L 18 0  L 18 11.2272727272727  C 18 11.719696969697  17.8359375 12.1382575757576  17.5078125 12.4829545454545  C 17.1796875 12.8276515151515  16.78125 13  16.3125 13  L 1.6875 13  C 1.21875 13  0.8203125 12.8276515151515  0.4921875 12.4829545454545  C 0.1640625 12.1382575757576  0 11.719696969697  0 11.2272727272727  L 0 1.18181818181818  L 2.25 1.18181818181818  L 2.25 0  Z " fill-rule="nonzero" fill="#000000" stroke="none" transform="matrix(1 0 0 1 291 163 )" />
  </g>
</svg>