<?xml version="1.0" encoding="utf-8"?>
<svg version="1.1" xmlns:xlink="http://www.w3.org/1999/xlink" width="35px" height="35px" xmlns="http://www.w3.org/2000/svg">
  <g transform="matrix(1 0 0 1 -490 -12 )">
    <path d="M 21.46484375 21.46484375  C 23.30879407051282 19.62089342948718  24.23076923076923 17.40184294871795  24.23076923076923 14.80769230769231  C 24.23076923076923 12.213541666666664  23.30879407051282 9.994491185897434  21.46484375 8.150540865384615  C 19.620893429487182 6.306590544871792  17.40184294871795 5.384615384615385  14.807692307692308 5.384615384615385  C 12.213541666666668 5.384615384615385  9.994491185897438 6.306590544871792  8.150540865384615 8.150540865384615  C 6.306590544871796 9.994491185897434  5.384615384615385 12.213541666666664  5.384615384615385 14.80769230769231  C 5.384615384615385 17.40184294871795  6.306590544871796 19.62089342948718  8.150540865384615 21.46484375  C 9.994491185897438 23.308794070512814  12.213541666666668 24.23076923076923  14.807692307692308 24.23076923076923  C 17.40184294871795 24.23076923076923  19.620893429487182 23.308794070512814  21.46484375 21.46484375  Z M 34.22175480769231 30.41466346153846  C 34.74058493589744 30.93349358974359  35 31.564503205128208  35 32.30769230769231  C 35 33.03685897435898  34.73357371794872 33.66786858974359  34.20072115384615 34.20072115384615  C 33.66786858974359 34.733573717948715  33.03685897435898 35  32.30769230769231 35  C 31.55048076923077 35  30.919471153846153 34.733573717948715  30.41466346153846 34.20072115384615  L 23.20012019230769 27.00721153846154  C 20.690104166666668 28.74599358974359  17.892628205128208 29.615384615384617  14.807692307692308 29.615384615384617  C 12.802483974358976 29.615384615384617  10.884915865384615 29.22626201923077  9.05498798076923 28.44801682692308  C 7.225060096153846 27.669771634615383  5.6475360576923075 26.61808894230769  4.322415865384616 25.29296875  C 2.997295673076923 23.96784855769231  1.945612980769231 22.39032451923077  1.1673677884615385 20.560396634615383  C 0.38912259615384615 18.73046875  0 16.81290064102564  0 14.80769230769231  C 0 12.80248397435897  0.38912259615384615 10.884915865384615  1.1673677884615385 9.05498798076923  C 1.945612980769231 7.225060096153845  2.997295673076923 5.647536057692309  4.322415865384616 4.322415865384615  C 5.6475360576923075 2.9972956730769247  7.225060096153846 1.9456129807692302  9.05498798076923 1.1673677884615397  C 10.884915865384615 0.38912259615384526  12.802483974358976 0  14.807692307692308 0  C 16.812900641025642 0  18.73046875 0.38912259615384526  20.560396634615383 1.1673677884615397  C 22.39032451923077 1.9456129807692302  23.96784855769231 2.9972956730769247  25.29296875 4.322415865384615  C 26.61808894230769 5.647536057692309  27.669771634615383 7.225060096153845  28.448016826923077 9.05498798076923  C 29.22626201923077 10.884915865384615  29.615384615384617 12.80248397435897  29.615384615384617 14.80769230769231  C 29.615384615384617 17.892628205128204  28.74599358974359 20.690104166666664  27.00721153846154 23.20012019230769  L 34.22175480769231 30.41466346153846  Z " fill-rule="nonzero" fill="#0400b3" stroke="none" transform="matrix(1 0 0 1 490 12 )" />
  </g>
</svg>