<?xml version="1.0" encoding="utf-8"?>
<svg version="1.1" xmlns:xlink="http://www.w3.org/1999/xlink" width="30px" height="22px" xmlns="http://www.w3.org/2000/svg">
  <g transform="matrix(1 0 0 1 -916 -189 )">
    <path d="M 11.906354515050166 6.268253968253968  L 11.906354515050166 15.05079365079365  L 20 10.685714285714287  L 11.906354515050166 6.268253968253968  Z M 4.51505016722408 0.31428571428571317  C 7.313266443701227 0.10476190476190439  10.808249721293198 0  15 0  C 16.872909698996654 0  18.681716833890746 0.026190476190476097  20.426421404682273 0.07857142857142829  C 22.171125975473807 0.1309523809523805  23.450390189520625 0.18624338624338477  24.26421404682274 0.24444444444444358  L 25.484949832775918 0.31428571428571317  C 25.49609810479376 0.31428571428571317  25.590858416945377 0.32301587301587187  25.769230769230766 0.34047619047618927  C 25.947603121516167 0.3579365079365091  26.075808249721298 0.3753968253968265  26.153846153846153 0.3928571428571439  C 26.231884057971016 0.4103174603174613  26.362876254180602 0.4365079365079374  26.546822742474916 0.4714285714285722  C 26.730769230769234 0.506349206349207  26.88963210702341 0.5529100529100501  27.023411371237458 0.6111111111111114  C 27.157190635451506 0.6693121693121677  27.313266443701227 0.7449735449735415  27.49163879598662 0.8380952380952376  C 27.67001114827202 0.9312169312169287  27.8428093645485 1.0447089947089943  28.010033444816052 1.1785714285714293  C 28.177257525083615 1.3124338624338594  28.338907469342256 1.4666666666666663  28.494983277591974 1.6412698412698403  C 28.561872909698995 1.71111111111111  28.648272017837236 1.8187830687830664  28.75418060200669 1.9642857142857146  C 28.860089186176147 2.109788359788358  29.021739130434785 2.4502645502645497  29.23913043478261 2.985714285714285  C 29.456521739130437 3.521164021164018  29.604236343366782 4.108994708994707  29.682274247491637 4.749206349206349  C 29.77146042363434 5.494179894179894  29.841137123745824 6.288624338624338  29.891304347826086 7.132539682539681  C 29.94147157190636 7.976455026455026  29.97212931995541 8.637037037037034  29.98327759197324 9.114285714285714  L 29.98327759197324 9.812698412698412  L 29.98327759197324 12.187301587301588  C 29.994425863991083 13.875132275132271  29.894091415830548 15.562962962962962  29.682274247491637 17.25079365079365  C 29.604236343366782 17.891005291005293  29.464882943143817 18.470105820105818  29.264214046822744 18.98809523809524  C 29.063545150501678 19.506084656084656  28.885172798216278 19.864021164021167  28.729096989966553 20.06190476190476  L 28.494983277591974 20.35873015873016  C 28.338907469342256 20.533333333333335  28.177257525083615 20.687566137566137  28.010033444816052 20.82142857142857  C 27.8428093645485 20.955291005291006  27.67001114827202 21.065873015873017  27.49163879598662 21.153174603174605  C 27.313266443701227 21.24047619047619  27.157190635451506 21.313227513227513  27.023411371237458 21.37142857142857  C 26.88963210702341 21.429629629629627  26.730769230769234 21.476190476190474  26.546822742474916 21.51111111111111  C 26.362876254180602 21.546031746031744  26.229096989966553 21.572222222222223  26.145484949832777 21.58968253968254  C 26.061872909698998 21.607142857142858  25.93366778149387 21.624603174603173  25.76086956521739 21.642063492063492  C 25.588071348940915 21.65952380952381  25.49609810479376 21.66825396825397  25.484949832775918 21.66825396825397  C 22.686733556298773 21.889417989417993  19.1917502787068 22  15 22  C 12.692307692307692 21.976719576719578  10.68840579710145 21.93888888888889  8.988294314381271 21.886507936507936  C 7.288182831661093 21.834126984126986  6.170568561872909 21.79047619047619  5.635451505016722 21.755555555555556  L 4.816053511705686 21.685714285714287  L 4.214046822742475 21.615873015873014  C 3.8127090301003346 21.557671957671957  3.50891861761427 21.499470899470897  3.3026755852842813 21.44126984126984  C 3.096432552954292 21.383068783068783  2.8121516164994427 21.260846560846563  2.4498327759197323 21.074603174603176  C 2.0875139353400223 20.888359788359786  1.7725752508361203 20.649735449735452  1.5050167224080269 20.35873015873016  C 1.4381270903010033 20.28888888888889  1.3517279821627648 20.18121693121693  1.2458193979933112 20.035714285714285  C 1.1399108138238574 19.890211640211643  0.9782608695652174 19.54973544973545  0.7608695652173914 19.014285714285716  C 0.5434782608695652 18.478835978835978  0.3957636566332219 17.891005291005293  0.3177257525083612 17.25079365079365  C 0.22853957636566335 16.505820105820103  0.15886287625418063 15.71137566137566  0.10869565217391304 14.867460317460319  C 0.05852842809364549 14.023544973544968  0.027870680044593088 13.362962962962962  0.016722408026755852 12.885714285714284  L 0.016722408026755852 12.187301587301588  L 0.016722408026755852 9.812698412698412  C 0.005574136008918616 8.124867724867723  0.10590858416945373 6.437037037037035  0.3177257525083612 4.749206349206349  C 0.3957636566332219 4.108994708994707  0.5351170568561873 3.5298941798941765  0.7357859531772575 3.011904761904761  C 0.9364548494983278 2.493915343915343  1.1148272017837235 2.1359788359788343  1.2709030100334449 1.9380952380952385  L 1.5050167224080269 1.6412698412698403  C 1.6610925306577482 1.4666666666666663  1.8227424749163879 1.3124338624338594  1.9899665551839465 1.1785714285714293  C 2.1571906354515047 1.0447089947089943  2.329988851727982 0.9312169312169287  2.508361204013378 0.8380952380952376  C 2.686733556298774 0.7449735449735415  2.842809364548495 0.6693121693121677  2.9765886287625416 0.6111111111111114  C 3.1103678929765888 0.5529100529100501  3.269230769230769 0.506349206349207  3.4531772575250836 0.4714285714285722  C 3.6371237458193986 0.4365079365079374  3.7681159420289863 0.4103174603174613  3.846153846153846 0.3928571428571439  C 3.9241917502787067 0.3753968253968265  4.052396878483836 0.3579365079365091  4.230769230769231 0.34047619047618927  C 4.409141583054627 0.32301587301587187  4.503901895206244 0.31428571428571317  4.51505016722408 0.31428571428571317  Z " fill-rule="nonzero" fill="#000000" stroke="none" transform="matrix(1 0 0 1 916 189 )" />
  </g>
</svg>