<?xml version="1.0" encoding="utf-8"?>
<svg version="1.1" xmlns:xlink="http://www.w3.org/1999/xlink" width="27px" height="30px" xmlns="http://www.w3.org/2000/svg">
  <g transform="matrix(1 0 0 1 -925 -28 )">
    <path d="M 8.936079545454547 6.192908653846153  C 9.076704545454545 6.331129807692304  9.249289772727273 6.400240384615384  9.453835227272728 6.400240384615384  C 9.658380681818182 6.400240384615384  9.834161931818183 6.331129807692304  9.981178977272728 6.192908653846153  C 10.128196022727275 6.054687499999999  10.201704545454547 5.889423076923073  10.201704545454547 5.697115384615384  C 10.201704545454547 5.50480769230769  10.128196022727275 5.3395432692307665  9.981178977272728 5.201322115384616  C 9.834161931818183 5.063100961538462  9.658380681818182 4.993990384615384  9.453835227272728 4.993990384615384  C 9.249289772727273 4.993990384615384  9.076704545454545 5.063100961538462  8.936079545454547 5.201322115384616  C 8.795454545454545 5.3395432692307665  8.725142045454547 5.50480769230769  8.725142045454547 5.697115384615384  C 8.725142045454547 5.889423076923073  8.795454545454545 6.054687499999999  8.936079545454547 6.192908653846153  Z M 17.018821022727273 6.192908653846153  C 17.16583806818182 6.331129807692304  17.34161931818182 6.400240384615384  17.546164772727273 6.400240384615384  C 17.750710227272727 6.400240384615384  17.923295454545457 6.331129807692304  18.063920454545457 6.192908653846153  C 18.204545454545457 6.054687499999999  18.274857954545457 5.889423076923073  18.274857954545457 5.697115384615384  C 18.274857954545457 5.50480769230769  18.204545454545457 5.3395432692307665  18.063920454545457 5.201322115384616  C 17.923295454545457 5.063100961538462  17.750710227272727 4.993990384615384  17.546164772727273 4.993990384615384  C 17.34161931818182 4.993990384615384  17.16583806818182 5.063100961538462  17.018821022727273 5.201322115384616  C 16.87180397727273 5.3395432692307665  16.798295454545457 5.50480769230769  16.798295454545457 5.697115384615384  C 16.798295454545457 5.889423076923073  16.87180397727273 6.054687499999999  17.018821022727273 6.192908653846153  Z M 0.5752840909090908 10.258413461538463  C 0.9588068181818182 9.897836538461537  1.4254261363636367 9.717548076923078  1.9751420454545454 9.717548076923078  C 2.5120738636363633 9.717548076923078  2.9723011363636367 9.897836538461537  3.3558238636363633 10.258413461538463  C 3.739346590909091 10.618990384615385  3.9311079545454546 11.051682692307693  3.9311079545454546 11.556490384615385  L 3.9311079545454546 19.30889423076923  C 3.9311079545454546 19.82572115384615  3.742542613636364 20.264423076923073  3.365411931818182 20.625  C 2.9882812500000004 20.985576923076927  2.5248579545454546 21.165865384615383  1.9751420454545454 21.165865384615383  C 1.4254261363636367 21.165865384615383  0.9588068181818182 20.985576923076927  0.5752840909090908 20.625  C 0.19176136363636362 20.264423076923073  0 19.82572115384615  0 19.30889423076923  L 0 11.556490384615385  C 0 11.051682692307693  0.19176136363636362 10.618990384615385  0.5752840909090908 10.258413461538463  Z M 5 10  L 22 10  L 22 22.067307692307693  C 22.301846590909093 22.62019230769231  22.097301136363637 23.08894230769231  21.688210227272727 23.473557692307693  C 21.27911931818182 23.858173076923077  20.78693181818182 24.05048076923077  20.211647727272727 24.05048076923077  L 18.7734375 24.05048076923077  L 18.7734375 28.143028846153847  C 18.7734375 28.65985576923077  18.581676136363637 29.098557692307693  18.198153409090907 29.459134615384617  C 17.81463068181818 29.819711538461537  17.348011363636367 30  16.798295454545457 30  C 16.248579545454547 30  15.781960227272727 29.819711538461537  15.3984375 29.459134615384617  C 15.014914772727273 29.098557692307693  14.823153409090908 28.65985576923077  14.823153409090908 28.143028846153847  L 14.823153409090908 24.05048076923077  L 12.17684659090909 24.05048076923077  L 12.17684659090909 28.143028846153847  C 12.17684659090909 28.65985576923077  11.985085227272728 29.098557692307693  11.6015625 29.459134615384617  C 11.218039772727272 29.819711538461537  10.751420454545455 30  10.201704545454547 30  C 9.664772727272728 30  9.204545454545453 29.819711538461537  8.821022727272728 29.459134615384617  C 8.4375 29.098557692307693  8.245738636363637 28.65985576923077  8.245738636363637 28.143028846153847  L 8.2265625 24.05048076923077  L 6.807528409090909 24.05048076923077  C 6.2194602272727275 24.05048076923077  5.7208806818181825 23.858173076923077  5.311789772727273 23.473557692307693  C 4.902698863636364 23.08894230769231  4.698153409090909 22.62019230769231  5 22.067307692307693  L 5 10  Z M 19.214488636363637 0.39663461538461564  L 17.852982954545457 2.7584134615384626  C 19.220880681818187 3.4194711538461506  20.313920454545457 4.341947115384615  21.132102272727273 5.525841346153847  C 21.95028409090909 6.709735576923073  22.359375 8.004807692307693  22.359375 10  L 4.621448863636364 10  C 4.621448863636364 8.004807692307693  5.030539772727273 6.709735576923073  5.848721590909091 5.525841346153847  C 6.66690340909091 4.341947115384615  7.7663352272727275 3.4194711538461506  9.147017045454547 2.7584134615384626  L 7.785511363636363 0.39663461538461564  C 7.696022727272728 0.24038461538461453  7.727982954545455 0.12019230769230393  7.881392045454546 0.036057692307693845  C 8.047585227272728 -0.036057692307693845  8.175426136363637 0  8.264914772727272 0.14423076923076872  L 9.64559659090909 2.5240384615384626  C 10.860085227272728 2.0192307692307687  12.144886363636363 1.7668269230769218  13.5 1.7668269230769218  C 14.855113636363638 1.7668269230769218  16.139914772727273 2.0192307692307687  17.354403409090907 2.5240384615384626  L 18.735085227272727 0.14423076923076872  C 18.824573863636367 0  18.952414772727273 -0.036057692307693845  19.118607954545457 0.036057692307693845  C 19.272017045454543 0.12019230769230393  19.303977272727273 0.24038461538461453  19.214488636363637 0.39663461538461564  Z M 26.424715909090907 10.249399038461537  C 26.808238636363637 10.603966346153845  27 11.039663461538462  27 11.556490384615385  L 27 19.30889423076923  C 27 19.82572115384615  26.808238636363637 20.264423076923073  26.424715909090907 20.625  C 26.04119318181818 20.985576923076927  25.574573863636367 21.165865384615383  25.024857954545457 21.165865384615383  C 24.487926136363637 21.165865384615383  24.027698863636363 20.985576923076927  23.644176136363637 20.625  C 23.260653409090907 20.264423076923073  23.068892045454543 19.82572115384615  23.068892045454543 19.30889423076923  L 23.068892045454543 11.556490384615385  C 23.068892045454543 11.039663461538462  23.260653409090907 10.603966346153845  23.644176136363637 10.249399038461537  C 24.027698863636363 9.89483173076923  24.487926136363637 9.717548076923078  25.024857954545457 9.717548076923078  C 25.574573863636367 9.717548076923078  26.04119318181818 9.89483173076923  26.424715909090907 10.249399038461537  Z " fill-rule="nonzero" fill="#ffffff" stroke="none" transform="matrix(1 0 0 1 925 28 )" />
  </g>
</svg>